# xmcd
#
# Track frame offsets: 
#        150
#        4617
#        18900
#        37505
#        54655
#        71115
#        89402
#        108197
#        128952
#        133532
#        146755
#        163582
#        178797
#        197100
#        211417
#        284340
#        301852
#        330850
#
# Disc length: 4795 seconds
#
# Revision: 0
# Processed by: cddbd v1.5.1PL0 Copyright (c) Steve Scherf et al.
# Submitted via: ExactAudioCopy v0.95a5
#
DISCID=f512b912
DTITLE=JAY SEAN - Me Against Myself
DYEAR=2004
DGENRE=R&B
TTITLE0=Intro (Balcony Skit)
TTITLE1=Eyes On You
TTITLE2=One Night
TTITLE3=Don't Rush
TTITLE4=On and On
TTITLE5=Stolen
TTITLE6=Come With Me
TTITLE7=Holding On
TTITLE8=Interlude (Irony Skit)
TTITLE9=Dance With You
TTITLE10=Man's World (RAMTA JOGI)
TTITLE11=I Believe In You
TTITLE12=One Minute
TTITLE13=Meri Jaan
TTITLE14=Me Against Myself
TTITLE15=Eyes On You (Rishi Rich Club Mix)
TTITLE16=Stolen (Rishi RIch Remix)
TTITLE17=No Title
EXTD=
EXTT0=
EXTT1=
EXTT2=
EXTT3=
EXTT4=
EXTT5=
EXTT6=
EXTT7=
EXTT8=
EXTT9=
EXTT10=
EXTT11=
EXTT12=
EXTT13=
EXTT14=
EXTT15=
EXTT16=
EXTT17=
PLAYORDER=
